<svg viewBox="0 0 17 22" xmlns="http://www.w3.org/2000/svg" fill-rule="evenodd" clip-rule="evenodd" stroke-linejoin="round" stroke-miterlimit="2"><path d="M3.509 5.712h-2.44c-.55 0-1 .448-1 1v13.6c0 .553.45 1 1 1h14.03c.55 0 1-.447 1-1v-13.6c0-.552-.45-1-1-1h-2.44V4.85A4.58 4.58 0 008.079.27a4.578 4.578 0 00-4.57 4.58v.86zm9.15 2v3.066c0 .552-.44 1-1 1-.55 0-1-.448-1-1V7.712h-5.15v3.066c0 .552-.45 1-1 1-.56 0-1-.448-1-1V7.712h-1.44v11.6h12.03v-11.6h-1.44zm-2-2V4.85a2.574 2.574 0 10-5.15 0v.86h5.15z" fill="#48001e"/></svg>