<svg viewBox="0 0 17 22" xmlns="http://www.w3.org/2000/svg" fill-rule="evenodd" clip-rule="evenodd" stroke-linejoin="round" stroke-miterlimit="2"><path d="M3.576 6.135h-2.44c-.55 0-1 .44-1 1v13.6c0 .55.45 1 1 1h14.03c.55 0 1-.45 1-1v-13.6c0-.56-.45-1-1-1h-2.43v-.87c0-2.52-2.06-4.58-4.58-4.58-2.53 0-4.58 2.06-4.58 4.58v.87zm9.16 2v3.06c0 .55-.45 1-1 1-.56 0-1-.45-1-1v-3.06h-5.16v3.06c0 .55-.45 1-1 1s-1-.45-1-1v-3.06h-1.44v11.6h12.03v-11.6h-1.43zm-2-2v-.87a2.58 2.58 0 10-5.16 0v.87h5.16z" fill="#fff"/></svg>