<svg viewBox="0 0 22 22" xmlns="http://www.w3.org/2000/svg" fill-rule="evenodd" clip-rule="evenodd" stroke-linejoin="round" stroke-miterlimit="2"><path d="M10.682 3.277C8.102.127 4.012.43 1.862 2.446c-2.29 2.144-2.49 6.428-.2 10.716 1.49 2.984 5.3 6.005 8.49 7.999.33.202.74.202 1.06 0 3.2-1.995 7-5.018 8.5-8.011 2.28-4.28 2.08-8.562-.21-10.704-2.15-2.016-6.24-2.318-8.82.83zm-.88 2.274a.99.99 0 00.88.529.99.99 0 00.88-.53c1.65-3.086 4.93-3.188 6.58-1.644.65.61 1.02 1.474 1.15 2.476.22 1.7-.24 3.769-1.35 5.843-.01.008-.01.017-.02.025-1.27 2.554-4.45 5.08-7.24 6.878-2.79-1.798-5.97-4.324-7.24-6.878-.01-.008-.01-.017-.02-.025-1.1-2.074-1.57-4.142-1.35-5.843.13-1.002.5-1.865 1.16-2.476 1.65-1.544 4.92-1.442 6.57 1.645z" fill="#48001e"/><path d="M15.158 6.323a1.323 1.323 0 110 2.644 1 1 0 000 2 3.323 3.323 0 000-6.644 1 1 0 000 2z" fill="#48001e"/></svg>