<svg viewBox="0 0 14 14" xmlns="http://www.w3.org/2000/svg" fill-rule="evenodd" clip-rule="evenodd" stroke-linejoin="round" stroke-miterlimit="2"><path d="M7.297 13.973h-.129a45.184 45.184 0 01-2.876-.08c-.84-.05-1.605-.34-2.216-.839-.589-.48-.99-1.129-1.195-1.93-.178-.696-.187-1.38-.196-2.04a142.51 142.51 0 01-.015-1.61c.002-.574.008-1.136.015-1.61.009-.662.018-1.346.196-2.042.204-.8.606-1.45 1.195-1.93.61-.498 1.377-.788 2.216-.839A45.289 45.289 0 017.171.974c1.019-.002 1.96.024 2.875.08.84.05 1.606.34 2.216.838.59.48.991 1.13 1.196 1.93.177.696.187 1.38.196 2.041.006.475.013 1.037.014 1.61 0 .573-.008 1.136-.014 1.61a.508.508 0 01-1.016-.014c.007-.472.014-1.03.015-1.597a123.31 123.31 0 00-.015-1.595c-.008-.602-.017-1.224-.164-1.804-.15-.585-.437-1.054-.853-1.394-.451-.368-1.002-.574-1.636-.612A44.51 44.51 0 007.17 1.99a44.313 44.313 0 00-2.817.077c-.635.038-1.185.244-1.636.612-.417.34-.704.809-.853 1.394-.148.58-.156 1.202-.165 1.804-.006.472-.013 1.03-.014 1.597.001.565.008 1.123.014 1.595.009.602.017 1.225.165 1.805.15.585.436 1.054.853 1.393.45.368 1.001.574 1.636.613.894.054 1.814.08 2.814.077a44.311 44.311 0 002.817-.077c.634-.039 1.185-.245 1.636-.613.3-.244.534-.559.697-.933a.508.508 0 01.932.403c-.228.526-.56.969-.988 1.317-.61.498-1.376.788-2.216.84-.876.053-1.777.079-2.749.079zm3.02-6.5A3.177 3.177 0 007.144 4.3 3.177 3.177 0 003.97 7.473a3.177 3.177 0 003.174 3.174 3.177 3.177 0 003.173-3.174zm-1.015 0a2.16 2.16 0 01-2.158 2.158 2.16 2.16 0 01-2.158-2.158 2.16 2.16 0 012.158-2.158 2.16 2.16 0 012.158 2.158zm1.37-4.189a.762.762 0 100 1.524.762.762 0 000-1.524z" fill="#48001e" fill-rule="nonzero"/></svg>