<svg viewBox="0 0 17 22" xmlns="http://www.w3.org/2000/svg" fill-rule="evenodd" clip-rule="evenodd" stroke-linejoin="round" stroke-miterlimit="2"><path d="M16.094 1.59c0-.552-.45-1-1-1h-13.9c-.55 0-1 .448-1 1v19.042c0 .552.45 1 1 1h13.9c.55 0 1-.448 1-1V1.59zm-2 1v17.042h-11.9V2.59h11.9z" fill="#48001e"/><path d="M4.484 7.94h7.32c.56 0 1-.448 1-1 0-.551-.44-1-1-1h-7.32c-.55 0-1 .449-1 1 0 .552.45 1 1 1zm0 4.563h7.32c.56 0 1-.448 1-1 0-.55-.44-1-1-1h-7.32c-.55 0-1 .45-1 1 0 .552.45 1 1 1zm0 4.564h7.32c.56 0 1-.448 1-1 0-.551-.44-1-1-1h-7.32c-.55 0-1 .449-1 1 0 .552.45 1 1 1z" fill="#48001e"/></svg>