<svg viewBox="0 0 23 22" xmlns="http://www.w3.org/2000/svg" fill-rule="evenodd" clip-rule="evenodd" stroke-linejoin="round" stroke-miterlimit="2"><circle cx="2256.84" cy="3369.59" r="9.375" fill="#f4f5f6" transform="translate(-2534.492 -3790.454) scale(1.12812)"/><path d="M5.793 9.283a.4.4 0 00-.568 0l-.574.574a.4.4 0 000 .568l5.286 5.285c.16.16.42.16.574.007l.574-.575a.408.408 0 00-.006-.574L5.793 9.283z" fill="#ed1c24"/><path d="M9.744 14.196a.403.403 0 00.004.565l.574.574a.403.403 0 00.565.004l7.502-7.503a.406.406 0 00.005-.573l-.574-.574a.406.406 0 00-.573.005l-7.503 7.502z" fill="#ed1c24"/></svg>