<svg viewBox="0 0 15 16" xmlns="http://www.w3.org/2000/svg" fill-rule="evenodd" clip-rule="evenodd" stroke-linejoin="round" stroke-miterlimit="2"><g transform="translate(.506 .414) scale(.7216)"><clipPath id="a"><path d="M0 0h20v22H0z"/></clipPath><g clip-path="url(#a)"><path d="M17.91 14.622c-1.238-1.059-2.496-1.703-3.719-.645l-.73.641c-.535.461-1.527 2.629-5.371-1.788-3.84-4.415-1.555-5.103-1.02-5.56l.735-.64c1.218-1.063.757-2.395-.121-3.77l-.528-.832C6.273.657 5.312-.241 4.093.817l-.659.574c-.539.395-2.047 1.672-2.411 4.098-.442 2.91.946 6.242 4.129 9.899 3.176 3.661 6.286 5.496 9.231 5.464 2.445-.027 3.926-1.339 4.387-1.816l.664-.578c1.214-1.059.461-2.133-.782-3.195l-.742-.641z" fill="#48001e" fill-rule="nonzero"/></g></g></svg>