<svg viewBox="0 0 15 16" xmlns="http://www.w3.org/2000/svg" fill-rule="evenodd" clip-rule="evenodd" stroke-linejoin="round" stroke-miterlimit="2"><path d="M14.131 8.967c.46-3.877-.22-6.324-1.45-7.432-1.985-1.89-8.69-2.17-11.064.085C.55 2.723.175 4.342.134 6.346c-.042 2.005-.09 5.761 3.41 6.78h.003l-.004 1.556s-.023.63.38.757c.46.15.668-.143 2.1-1.854 2.396.208 4.236-.268 4.445-.338.484-.162 3.22-.524 3.663-4.28zM6.26 12.49s-1.516 1.89-1.988 2.381c-.154.16-.323.145-.32-.171l.01-2.584c-2.967-.85-2.792-4.048-2.76-5.721.033-1.674.339-3.045 1.242-3.968C4.528.473 10.405.91 11.902 2.317c1.831 1.624 1.18 6.209 1.183 6.365-.376 3.135-2.594 3.334-3.002 3.47-.174.058-1.792.474-3.823.338z" fill="#48001e" fill-rule="nonzero"/><path d="M9.22 8.247c-.317-.184-.64-.07-.774.111l-.28.363c-.142.184-.408.16-.408.16-1.939-.514-2.457-2.542-2.457-2.542s-.024-.275.154-.422l.35-.29c.174-.139.285-.473.107-.802-.476-.86-.796-1.157-.959-1.384-.17-.214-.428-.263-.696-.118h-.005c-.557.326-1.166.935-.971 1.562.333.661.944 2.77 2.891 4.362.916.753 2.364 1.525 2.98 1.703l.005.01c.606.201 1.195-.432 1.51-1.005V9.95c.14-.277.093-.54-.11-.711a7.636 7.636 0 00-1.336-.992zM7.099 2.794c-.248 0-.248.386 0 .39 1.921.014 3.503 1.354 3.52 3.81 0 .26.38.256.377-.003-.021-2.647-1.749-4.182-3.897-4.197z" fill="#48001e" fill-rule="nonzero"/><path d="M9.626 6.587c-.006.256.373.268.376.009.032-1.46-.868-2.662-2.56-2.789-.247-.018-.273.372-.026.39 1.467.11 2.24 1.112 2.21 2.39z" fill="#48001e" fill-rule="nonzero"/><path d="M7.708 5.243c.618.036.918.36.95 1.022.011.26.388.241.376-.018-.041-.866-.493-1.348-1.306-1.393-.247-.015-.27.374-.02.39z" fill="#48001e" fill-rule="nonzero"/></svg>