<svg viewBox="0 0 15 11" xmlns="http://www.w3.org/2000/svg" fill-rule="evenodd" clip-rule="evenodd" stroke-linejoin="round" stroke-miterlimit="2"><path d="M7.882 10.532h-.007c-.423-.003-4.157-.037-5.216-.323a2.164 2.164 0 01-1.522-1.522c-.277-1.039-.26-3.04-.258-3.2-.001-.16-.02-2.177.257-3.225V2.26A2.21 2.21 0 012.659.727l.005-.001C3.71.45 7.451.417 7.875.414h.007c.424.003 4.169.037 5.217.324.738.198 1.321.78 1.52 1.52.288 1.048.262 3.07.259 3.24.002.169.018 2.152-.257 3.197v.003c-.2.74-.784 1.323-1.524 1.522h-.003c-1.046.275-4.788.31-5.212.312zm-5.689-7.99c-.243.926-.22 2.918-.22 2.938v.014c-.007.553.019 2.153.22 2.91.098.363.386.65.751.749.78.211 3.823.277 4.935.285 1.114-.008 4.16-.072 4.936-.275.363-.098.65-.385.749-.748.202-.769.227-2.361.22-2.91a.91.91 0 010-.017c.01-.56-.01-2.178-.22-2.942v-.002a1.067 1.067 0 00-.751-.75c-.773-.212-3.82-.278-4.934-.286-1.114.008-4.158.073-4.935.275-.358.1-.653.397-.75.76zm11.9 6.014zm-7.609-.868v-4.43l3.829 2.215-3.829 2.215z" fill="#48001e" fill-rule="nonzero"/></svg>