<svg viewBox="0 0 50 34" xmlns="http://www.w3.org/2000/svg" fill-rule="evenodd" clip-rule="evenodd" stroke-linejoin="round" stroke-miterlimit="2"><g fill="#fff" fill-rule="nonzero"><path d="M40.675 24.944a4.523 4.523 0 00-3.19 1.316c-.858.858-1.337 1.974-1.337 3.171 0 1.197.47 2.313 1.337 3.171a4.54 4.54 0 003.19 1.316c2.453 0 4.447-2.014 4.447-4.487 0-2.473-1.994-4.487-4.447-4.487zm0 6.98c-1.376 0-2.532-1.137-2.532-2.493 0-1.356 1.156-2.493 2.532-2.493 1.356 0 2.453 1.117 2.453 2.493s-1.097 2.493-2.453 2.493zm1.157-21.926a.967.967 0 00-.668-.26h-5.116a1 1 0 00-.997.997v8.177a1 1 0 00.997.997h8.117a1 1 0 00.997-.997v-5.474c0-.28-.12-.549-.329-.738l-3.001-2.702zm1.336 7.917h-6.122v-6.192h3.729l2.393 2.153v4.039zm-26.842 7.029a4.524 4.524 0 00-3.191 1.316c-.858.858-1.336 1.974-1.336 3.171 0 1.197.469 2.313 1.336 3.171a4.541 4.541 0 003.19 1.316c2.454 0 4.448-2.014 4.448-4.487 0-2.473-1.994-4.487-4.447-4.487zm0 6.98c-1.376 0-2.533-1.137-2.533-2.493 0-1.356 1.157-2.493 2.533-2.493 1.356 0 2.453 1.117 2.453 2.493s-1.097 2.493-2.453 2.493zM9.675 26.17H7.671v-2.652a1 1 0 00-.998-.997 1 1 0 00-.997.997v3.65a1 1 0 00.997.997h3.002a1 1 0 00.997-.997 1 1 0 00-.997-.997zm5.055-5.434a1 1 0 00-.997-.997H1.638a1 1 0 00-.997.997 1 1 0 00.997.997h12.095a.993.993 0 00.997-.997zM3.662 17.137l12.096.07c.548 0 .997-.44 1.006-.988a.987.987 0 00-.987-1.006l-12.095-.07h-.01a.992.992 0 00-.997.987.987.987 0 00.987 1.007zm2.034-4.527h12.096a1 1 0 00.997-.997 1 1 0 00-.997-.997H5.696a1 1 0 00-.997.997 1 1 0 00.997.997z"/><path d="M49.24 11.264L42.102 5.35a.983.983 0 00-.638-.23h-8.396V1.533a1 1 0 00-.997-.997H6.673a1 1 0 00-.997.997v7.299a1 1 0 00.997.997 1 1 0 00.998-.997V2.529h23.412v23.642h-8.176a1 1 0 00-.997.997 1 1 0 00.997.997H35.08a1 1 0 00.998-.997 1 1 0 00-.998-.997h-2.004V7.116h8.037l6.501 5.384-.07 13.65h-1.037a1 1 0 00-.997.998 1 1 0 00.997.997h2.024a.991.991 0 00.997-.987l.08-15.116a1.054 1.054 0 00-.368-.778z"/></g></svg>