<svg viewBox="0 0 35 34" xmlns="http://www.w3.org/2000/svg" fill-rule="evenodd" clip-rule="evenodd" stroke-linejoin="round" stroke-miterlimit="2"><g fill="#fff" fill-rule="nonzero"><path d="M34.068 26.372l-5.303-5.304-.11-1.345 1.462-.89a.98.98 0 00.395-1.215l-.659-1.58 1.115-1.3a.98.98 0 000-1.276l-1.115-1.3.659-1.58a.98.98 0 00-.395-1.215l-1.462-.89.139-1.706a.981.981 0 00-.75-1.034l-1.666-.395-.396-1.666a.981.981 0 00-1.033-.751l-1.707.139-.89-1.462a.98.98 0 00-1.216-.395l-1.58.66L18.259.75a.981.981 0 00-1.277 0l-1.3 1.115-1.58-.659a.98.98 0 00-1.214.395l-.89 1.462-1.707-.139a.981.981 0 00-1.034.75l-.395 1.667-1.666.395a.98.98 0 00-.75 1.034l.138 1.706-1.462.89a.98.98 0 00-.395 1.215l.66 1.58-1.116 1.3a.981.981 0 000 1.277l1.115 1.299-.659 1.58a.981.981 0 00.395 1.215l1.462.89-.11 1.345-5.303 5.304a.98.98 0 00.383 1.624l3.992 1.33 1.33 3.991A.98.98 0 008.5 33.7l7.282-7.282 1.2 1.03a.98.98 0 001.277 0l1.2-1.03L26.74 33.7a.98.98 0 001.624-.383l1.33-3.99 3.991-1.33a.98.98 0 00.383-1.625zm-25.834 4.82L7.25 28.24a.98.98 0 00-.62-.62l-2.951-.983 4.048-4.048 1.134.27.395 1.665a.982.982 0 001.034.751l1.706-.139.869 1.426-4.631 4.63zM21.882 23.6l-.767 1.259-1.36-.568a.98.98 0 00-1.017.161l-1.119.96-1.118-.96a.98.98 0 00-1.017-.161l-1.36.568-.767-1.26a.98.98 0 00-.917-.466l-1.47.119-.34-1.435a.98.98 0 00-.728-.727l-1.434-.34.12-1.47a.98.98 0 00-.468-.917l-1.26-.767.568-1.361a.98.98 0 00-.161-1.016l-.96-1.119.96-1.119a.98.98 0 00.161-1.016l-.567-1.36 1.259-.768a.98.98 0 00.467-.917l-.12-1.469 1.435-.34a.981.981 0 00.727-.728l.34-1.435 1.47.12a.98.98 0 00.918-.468l.767-1.259 1.36.568a.981.981 0 001.017-.16l1.118-.961 1.119.96a.981.981 0 001.016.161l1.361-.568.767 1.26a.98.98 0 00.917.467l1.47-.12.34 1.435c.086.36.367.642.728.728l1.434.34-.12 1.47a.98.98 0 00.468.916l1.259.767-.567 1.361a.98.98 0 00.16 1.016l.96 1.12-.96 1.118a.98.98 0 00-.16 1.016l.567 1.36-1.26.768a.98.98 0 00-.466.917l.119 1.47-1.434.34a.98.98 0 00-.728.727l-.34 1.435-1.47-.12a.98.98 0 00-.917.468zm6.727 4.02a.98.98 0 00-.62.62l-.984 2.952-4.63-4.63.867-1.426 1.707.139a.982.982 0 001.033-.751l.396-1.666 1.134-.27 4.048 4.048-2.951.984z"/><path d="M25.666 11.306l-2.971-2.971a.981.981 0 00-1.387 0l-4.74 4.739-2.112-2.113a.981.981 0 00-1.386 0l-2.971 2.971a.98.98 0 000 1.387l5.777 5.777a.98.98 0 001.386 0l8.404-8.403a.98.98 0 000-1.387zm-9.097 7.71l-4.39-4.39 1.584-1.585 2.113 2.113a.98.98 0 001.386 0l4.739-4.739L23.585 12l-7.016 7.017z"/></g></svg>