<svg viewBox="0 0 17 18" xmlns="http://www.w3.org/2000/svg" fill-rule="evenodd" clip-rule="evenodd" stroke-linejoin="round" stroke-miterlimit="2"><path d="M16.778 5.778c-.038-.879-.18-1.483-.384-2.006a4.035 4.035 0 00-.957-1.467 4.07 4.07 0 00-1.463-.953c-.527-.204-1.128-.346-2.006-.385C11.082.925 10.8.916 8.556.916S6.03.926 5.148.964c-.88.039-1.483.181-2.007.385a4.037 4.037 0 00-1.466.956c-.42.413-.747.914-.953 1.463-.204.527-.346 1.128-.385 2.007C.295 6.66.285 6.94.285 9.186s.01 2.527.049 3.409c.039.878.18 1.483.384 2.006.21.556.537 1.053.957 1.467.413.42.914.746 1.463.953.527.203 1.128.345 2.006.384.882.039 1.164.049 3.409.049s2.526-.01 3.408-.049c.879-.039 1.483-.18 2.006-.384a4.23 4.23 0 002.42-2.42c.204-.527.346-1.128.385-2.006.039-.882.048-1.163.048-3.409 0-2.245-.003-2.526-.042-3.408zm-1.49 6.752c-.035.808-.17 1.244-.283 1.535a2.743 2.743 0 01-1.57 1.57c-.291.113-.73.248-1.535.284-.873.039-1.134.048-3.34.048-2.207 0-2.472-.01-3.341-.048-.808-.036-1.244-.171-1.535-.284a2.544 2.544 0 01-.95-.617 2.572 2.572 0 01-.617-.95c-.113-.29-.249-.73-.284-1.535-.039-.872-.048-1.134-.048-3.34 0-2.207.01-2.472.048-3.34.035-.809.171-1.245.284-1.535.133-.359.343-.685.62-.95.269-.275.592-.485.95-.617.291-.113.73-.249 1.535-.285.872-.038 1.134-.048 3.34-.048 2.21 0 2.472.01 3.341.048.808.036 1.244.172 1.535.285.358.132.685.342.95.617.274.268.484.591.617.95.113.29.248.73.284 1.534.039.872.048 1.134.048 3.34 0 2.207-.01 2.466-.048 3.338z" fill="#fff" fill-rule="nonzero"/><path d="M8.556 4.938a4.25 4.25 0 000 8.497 4.25 4.25 0 000-8.497zm0 7.004a2.756 2.756 0 110-5.512 2.756 2.756 0 010 5.512zm5.408-7.172a.992.992 0 11-1.983 0 .992.992 0 011.983 0z" fill="#fff" fill-rule="nonzero"/></svg>