<svg viewBox="0 0 35 36" xmlns="http://www.w3.org/2000/svg" fill-rule="evenodd" clip-rule="evenodd" stroke-linejoin="round" stroke-miterlimit="2"><g fill="#fff" fill-rule="nonzero"><path d="M27.727 28.4a.678.678 0 10-.824 1.078l1.159.885a.675.675 0 00.914-.083l2.214-2.445a.678.678 0 10-1.005-.91l-1.795 1.983-.663-.507z"/><path d="M34.924 24.783a.678.678 0 00-.619-.66c-1.612-.141-3.597-1.225-5.055-2.76a.679.679 0 00-.983 0 10.261 10.261 0 01-2.199 1.747c-1.376-1.536-3.07-2.668-5.055-3.38a13.893 13.893 0 00-.522-.175c1.68-1.675 2.808-3.876 2.808-5.85V12.64a2.246 2.246 0 001.35-2.057c0-.956-.601-1.774-1.445-2.095a8.362 8.362 0 00-6.005-7.167 1.019 1.019 0 00-.995-.808h-2.457c-.471 0-.867.324-.982.76a8.382 8.382 0 00-6.176 7.215 2.245 2.245 0 00-1.446 2.095c0 .92.557 1.713 1.352 2.058v1.064c0 1.972 1.13 4.174 2.808 5.85a13.223 13.223 0 00-.542.182c-2.222.802-4.077 2.128-5.53 3.96-1.397 1.763-2.39 3.94-2.952 6.47-.2.904-.35 2.04.266 2.808.603.75 1.68.846 2.552.846h4.434a.678.678 0 000-1.356H3.097c-.81 0-1.314-.114-1.494-.34-.192-.238-.192-.798 0-1.665.705-3.174 2.427-7.057 6.577-9.017-.128 2.29 1.113 3.787 1.902 4.737a.677.677 0 00.994.053l3.82-3.715 3.822 3.715a.679.679 0 00.995-.054c.787-.95 2.026-2.448 1.9-4.733a10.803 10.803 0 013.182 2.286 5.866 5.866 0 01-1.584.39.678.678 0 00-.618.66c-.057 2.423.347 4.16 1.44 6.192.009.017.378.68.953 1.491H13.668a.678.678 0 000 1.356h12.395c.817.903 1.781 1.672 2.695 1.672 2.205 0 4.701-4.474 4.725-4.519 1.092-2.032 1.495-3.768 1.44-6.191zM21.82 8.342h-3.732c-.705-1.843-.838-3.361-.862-5.59a7.008 7.008 0 014.594 5.59zm-7.734-6.473h1.78c.003 2.624.07 4.4.78 6.473h-3.34c.71-2.072.776-3.85.78-6.473zm-1.36.829c-.022 2.259-.152 3.787-.861 5.644H7.974c.386-2.602 2.257-4.818 4.752-5.644zm-5.34 7h4.534c.04.032.08.036.112 0h10.376a.886.886 0 010 1.772H7.386a.887.887 0 010-1.773zm.465 4.007v-.88h14.092v.88c0 2.585-2.503 5.781-5.358 6.84-1.249.465-2.135.464-3.387-.001-2.848-1.064-5.347-4.26-5.347-6.839zm2.813 11.038c-.702-.916-1.377-2.119-1.052-3.864.298-.097.607-.185.928-.263.683.501 1.42.913 2.185 1.198.246.092.483.167.714.23l-2.775 2.699zm8.466-.001l-2.777-2.699a8.24 8.24 0 00.705-.227 9.116 9.116 0 002.195-1.2c.317.077.626.164.928.262.325 1.743-.35 2.947-1.051 3.864zm13.159 5.591c-.802 1.497-2.68 3.804-3.53 3.804-.853 0-2.73-2.307-3.532-3.804-.896-1.666-1.263-3.055-1.283-4.946a8.513 8.513 0 002.318-.833 11.431 11.431 0 002.496-1.77c1.443 1.346 3.201 2.296 4.814 2.603-.021 1.891-.39 3.28-1.283 4.946z"/><path d="M10.6 32.465a.678.678 0 000 1.356h.004a.676.676 0 00.675-.678.68.68 0 00-.68-.678z"/></g></svg>