<svg viewBox="0 0 35 34" xmlns="http://www.w3.org/2000/svg" fill-rule="evenodd" clip-rule="evenodd" stroke-linejoin="round" stroke-miterlimit="2"><g transform="translate(.919 .466) scale(.08914)"><clipPath id="a"><path d="M0 .54h373v369.999H0z"/></clipPath><g clip-path="url(#a)" fill="#fff" fill-rule="nonzero"><path d="M223.672 338.161a151.876 151.876 0 01-9.301 2.016c-8.121 1.507-13.488 9.316-11.984 17.441.738 4 3.011 7.328 6.093 9.504a14.92 14.92 0 0011.34 2.476c3.7-.683 7.426-1.492 11.082-2.406 8.02-1.996 12.903-10.117 10.903-18.129-1.996-8.019-10.11-12.898-18.133-10.902zm110.637-200.535a14.895 14.895 0 005.578 7.519 14.94 14.94 0 0013.328 1.981c7.844-2.606 12.097-11.063 9.5-18.906a187.933 187.933 0 00-3.891-10.649c-3.07-7.672-11.773-11.41-19.449-8.34-7.668 3.067-11.402 11.774-8.332 19.446a159.458 159.458 0 013.266 8.949zm-62.02 179.176a158.294 158.294 0 01-8.109 5.007c-7.161 4.129-9.61 13.282-5.481 20.438a14.982 14.982 0 004.332 4.754 14.983 14.983 0 0016.102.726 185.064 185.064 0 009.648-5.961c6.891-4.554 8.789-13.836 4.235-20.73-4.555-6.898-13.832-8.793-20.727-4.234zm99.727-137.387c-.325-8.258-7.278-14.688-15.539-14.363-8.25.324-14.68 7.281-14.36 15.535.125 3.156.16 6.359.086 9.511-.117 5.18 2.414 9.797 6.352 12.571a14.907 14.907 0 008.277 2.722c8.258.18 15.098-6.367 15.281-14.628.082-3.77.051-7.586-.097-11.348zm-40.149 98.027c-6.621-4.969-15.988-3.617-20.949 2.992a154.976 154.976 0 01-5.945 7.438c-5.352 6.289-4.594 15.734 1.691 21.09.359.304.723.582 1.098.843 6.254 4.411 14.937 3.395 19.992-2.535a185.533 185.533 0 007.101-8.882c4.957-6.61 3.618-15.985-2.988-20.946zm21.992-54.082c-7.882-2.472-16.277 1.918-18.75 9.801a156.909 156.909 0 01-3.125 9.004c-2.484 6.523-.105 13.703 5.352 17.551 1 .703 2.105 1.297 3.301 1.75 7.718 2.945 16.363-.926 19.304-8.649a192.545 192.545 0 003.719-10.707c2.469-7.883-1.918-16.277-9.801-18.75zM158.398 340.313a154.566 154.566 0 01-38.375-12.195c-.144-.078-.273-.164-.421-.23a166.346 166.346 0 01-8.504-4.305c-.012-.012-.028-.02-.043-.028a159.108 159.108 0 01-14.887-9.3C25.793 264.677 8.871 167.087 58.449 96.712 69.23 81.415 82.277 68.649 96.82 58.536l.539-.375c51.254-35.316 120.848-37.695 175.27-1.406l-11.688 16.89c-3.25 4.7-1.254 8.125 4.438 7.614l50.773-4.547c5.696-.512 9.102-5.438 7.571-10.938l-13.637-49.125c-1.524-5.508-5.434-6.168-8.688-1.469l-11.714 16.93C249.746 5.302 201.844-4.925 154.297 3.321a188.126 188.126 0 00-14.168 3.024c-.035.007-.067.011-.094.019-.18.043-.363.102-.539.149-41 10.531-76.769 34.441-102.297 68.562-.215.254-.437.504-.64.781a186.774 186.774 0 00-2.516 3.481 181.943 181.943 0 00-3.949 5.847c-.16.239-.282.477-.422.719C8.609 118.544-1.551 156.278.191 194.696c.004.125-.003.254 0 .383.168 3.754.465 7.559.871 11.305.02.242.075.468.118.711a182.57 182.57 0 001.597 11.316c6.676 38.508 24.84 73.164 52.063 100.129.062.062.129.129.191.195.024.028.047.039.071.063a188.706 188.706 0 0023.832 19.918c22.418 15.797 47.378 26.234 74.183 31.047 8.137 1.46 15.906-3.954 17.363-12.083 1.461-8.136-3.949-15.914-12.082-17.367z"/><path d="M176.898 65.747c-6.691 0-12.109 5.426-12.109 12.105V198.45l110.297 57.016a11.993 11.993 0 005.543 1.355c4.383 0 8.613-2.387 10.766-6.551 3.066-5.937.746-13.238-5.196-16.304l-97.207-50.254V77.852c0-6.679-5.41-12.105-12.094-12.105z"/></g></g></svg>