<svg viewBox="0 0 29 31" xmlns="http://www.w3.org/2000/svg" fill-rule="evenodd" clip-rule="evenodd" stroke-linejoin="round" stroke-miterlimit="2"><path d="M27.972 17.57c.895-7.53-.43-12.283-2.818-14.433l.001-.001C21.3-.535 8.281-1.079 3.668 3.301c-2.07 2.142-2.8 5.287-2.88 9.18-.08 3.893-.175 11.187 6.622 13.166h.006L7.41 28.67s-.046 1.224.736 1.47c.894.29 1.299-.278 4.08-3.601 4.653.403 8.226-.521 8.632-.656.94-.315 6.255-1.018 7.114-8.312zm-15.287 6.842s-2.944 3.671-3.86 4.624c-.3.31-.628.281-.623-.333 0-.404.022-5.017.022-5.017-5.762-1.652-5.423-7.863-5.36-11.112.062-3.25.657-5.913 2.411-7.705 4.046-3.794 15.46-2.946 18.369-.213 3.555 3.152 2.29 12.057 2.297 12.36-.73 6.089-5.038 6.475-5.83 6.739-.339.112-3.48.92-7.426.657z" fill="#fff" fill-rule="nonzero"/><path d="M18.436 16.172c-.618-.358-1.246-.135-1.506.216l-.543.703c-.276.357-.792.31-.792.31-3.765-.996-4.772-4.936-4.772-4.936s-.046-.533.298-.82l.68-.561c.34-.27.555-.92.209-1.558-.925-1.67-1.546-2.246-1.862-2.689-.332-.416-.832-.51-1.351-.228h-.012C7.705 7.24 6.522 8.424 6.9 9.642c.646 1.284 1.833 5.378 5.616 8.471 1.777 1.463 4.59 2.962 5.785 3.308l.011.017c1.177.393 2.321-.836 2.932-1.95v-.008c.27-.539.181-1.048-.215-1.382-.702-.685-1.761-1.44-2.593-1.926zm-4.122-10.59c-.48 0-.48.75 0 .756 3.732.029 6.805 2.63 6.839 7.4 0 .504.737.497.73-.006-.04-5.14-3.396-8.121-7.569-8.15z" fill="#fff" fill-rule="nonzero"/><path d="M19.223 12.947c-.012.498.724.521.73.018.062-2.835-1.686-5.17-4.97-5.415-.481-.035-.531.72-.051.755 2.848.216 4.348 2.16 4.29 4.642z" fill="#fff" fill-rule="nonzero"/><path d="M15.497 10.338c1.2.07 1.783.697 1.846 1.985.022.503.753.468.73-.035-.08-1.682-.957-2.619-2.536-2.706-.48-.029-.526.727-.04.756z" fill="#fff" fill-rule="nonzero"/></svg>