<svg viewBox="0 0 24 18" xmlns="http://www.w3.org/2000/svg" fill-rule="evenodd" clip-rule="evenodd" stroke-linejoin="round" stroke-miterlimit="2"><path d="M22.819 2.354c-.841-1-2.394-1.408-5.359-1.408H6.696c-3.033 0-4.612.435-5.45 1.499C.43 3.482.43 5.012.43 7.128v4.033c0 4.1.969 6.18 6.266 6.18H17.46c2.572 0 3.997-.359 4.918-1.24.946-.906 1.349-2.383 1.349-4.94V7.128c0-2.232-.063-3.77-.908-4.774zM15.387 9.7l-4.888 2.555a.751.751 0 01-1.1-.666V6.497a.751.751 0 011.098-.667l4.888 2.538a.752.752 0 01.002 1.333z" fill="#fff" fill-rule="nonzero"/></svg>