<svg viewBox="0 0 29 34" xmlns="http://www.w3.org/2000/svg" fill-rule="evenodd" clip-rule="evenodd" stroke-linejoin="round" stroke-miterlimit="2"><path fill="#fff" d="M4.675 27.063h4.742v2.405H4.675zm5.903 0h2.268v2.405h-2.268z"/><path d="M23.125.287h-16.9l-.9.57-4.71 9.9c-.01.02-.02.03-.02.05h-.08v22.55h28.32v-22.55h-.07c-.01-.02-.02-.03-.03-.05l-4.7-9.9-.91-.57zm-13.3 12.52h-7.31v18.55h24.32v-18.55h-7.31v11.34h-9.7v-11.34zm7.7 0v9.34h-5.7v-9.34h5.7zm-14.72-2h7.27l1.32-8.52h-4.54l-4.05 8.52zm15.16-8.52l1.32 8.52h7.26l-4.05-8.52h-4.53zm-.71 8.52h-5.15l1.28-8.32h2.58l1.29 8.32z" fill="#fff"/></svg>