<svg viewBox="0 0 38 36" xmlns="http://www.w3.org/2000/svg" fill-rule="evenodd" clip-rule="evenodd" stroke-linejoin="round" stroke-miterlimit="2"><path d="M6.803 18.81c-.61-1.53-.95-3.2-.95-4.94C5.853 6.54 11.803.6 19.123.6c7.32 0 13.26 5.94 13.26 13.27 0 1.94-.41 3.78-1.17 5.45l5.88 10.18-7.6-.37-3.61 6.81-5.14-8.91c-.53.07-1.07.1-1.62.1-.74 0-1.46-.06-2.16-.17l-5.18 8.98-3.61-6.81-7.6.37 6.02-10.43c.06-.1.13-.19.21-.26zm23.27 2.53a13.244 13.244 0 01-7.26 5.27l3 5.2 2.51-4.74 5.21.25-3.46-5.98zm-22.21-.46l-3.73 6.44 5.21-.25 2.51 4.74 3.09-5.35c-2.96-.98-5.46-2.98-7.08-5.58zM19.123 2.6c6.22 0 11.26 5.05 11.26 11.27 0 6.21-5.04 11.26-11.26 11.26s-11.27-5.05-11.27-11.26c0-6.22 5.05-11.27 11.27-11.27zm0 3.43a7.84 7.84 0 00-7.84 7.84c0 4.32 3.51 7.83 7.84 7.83 4.32 0 7.84-3.51 7.84-7.83 0-4.33-3.52-7.84-7.84-7.84zm0 2a5.84 5.84 0 015.84 5.84c0 3.22-2.62 5.83-5.84 5.83-3.22 0-5.84-2.61-5.84-5.83a5.84 5.84 0 015.84-5.84z" fill="#fff"/></svg>