<svg viewBox="0 0 34 35" xmlns="http://www.w3.org/2000/svg" fill-rule="evenodd" clip-rule="evenodd" stroke-linejoin="round" stroke-miterlimit="2"><g fill="#fff" fill-rule="nonzero"><path d="M32.334 22.602a2.909 2.909 0 00-2.99.144l-4.702 3.135a2.966 2.966 0 00-2.947-2.664h-4.937l-.645-.483a7.504 7.504 0 00-4.475-1.491 7.461 7.461 0 00-3.837 1.062l-.259.156v-.89a.987.987 0 00-.987-.987H1.157a.987.987 0 00-.988.988V33.42c0 .546.442.988.988.988h5.398a.987.987 0 00.987-.988v-.329h15.552a4.91 4.91 0 002.81-.878l6.713-4.647a2.914 2.914 0 00-.283-4.964zM5.567 32.433H2.144V22.56h3.423v9.874zm25.927-6.491L24.78 30.59a2.948 2.948 0 01-1.686.527H7.542v-6.353l1.275-.765a5.485 5.485 0 016.112.315l.907.68a.987.987 0 00.593.198h5.266a.989.989 0 010 1.975h-7.241a.987.987 0 100 1.975h7.76c.717 0 1.412-.21 2.008-.608l6.217-4.144a.918.918 0 01.963-.047c.15.08.496.32.496.828a.939.939 0 01-.404.771zm-16.382-8.781c4.078 0 7.471-2.981 8.117-6.878.827.927 1.496 1.99 1.968 3.137h-.87a.988.988 0 00-.758 1.62l4.28 5.134a.986.986 0 001.516 0l4.279-5.134a.987.987 0 00-.759-1.62h-1.437a16.918 16.918 0 00-5.599-8.85A16.87 16.87 0 0015.112.705c-4.537 0-8.228 3.69-8.228 8.228 0 4.537 3.69 8.228 8.228 8.228zm6.832-12.819a14.763 14.763 0 012.645 1.749 14.922 14.922 0 015.103 8.512c.093.46.498.792.968.792h.117L28.607 18l-2.171-2.605h.14a.988.988 0 00.952-1.248 12.98 12.98 0 00-4.303-6.594h-.001a8.184 8.184 0 00-1.282-3.204l.002-.007zM15.112 2.68a6.26 6.26 0 016.254 6.253 6.26 6.26 0 01-6.254 6.254 6.26 6.26 0 01-6.253-6.254 6.26 6.26 0 016.253-6.253z"/><path d="M15.112 9.92a.659.659 0 11-.645.791.987.987 0 10-1.935.393 2.64 2.64 0 001.593 1.914v.194a.987.987 0 101.974 0v-.193a2.637 2.637 0 001.646-2.44 2.636 2.636 0 00-2.633-2.633.659.659 0 11.645-.791.987.987 0 101.935-.393A2.64 2.64 0 0016.1 4.848v-.194a.987.987 0 10-1.974 0v.193a2.637 2.637 0 00-1.646 2.44 2.636 2.636 0 002.633 2.634z"/></g></svg>