<svg viewBox="0 0 139 46" xmlns="http://www.w3.org/2000/svg" fill-rule="evenodd" clip-rule="evenodd" stroke-linejoin="round" stroke-miterlimit="2"><path d="M21.248 25.173H6.152v19.201H.215V14.878c0-4.126.884-7.347 2.653-9.664C5.436 1.846 9.794.162 15.942.162h5.306V5.72h-6c-2.738 0-4.738.421-6 1.263-2.064 1.39-3.096 3.98-3.096 7.769v4.863h15.096v5.558zm29.179 4.043c0-3.074-.937-5.59-2.81-7.548-1.874-1.958-4.306-2.937-7.295-2.937-2.948 0-5.369.969-7.264 2.905-1.895 1.938-2.842 4.464-2.842 7.58 0 3.116.926 5.642 2.78 7.579 1.852 1.937 4.294 2.905 7.326 2.905s5.473-.968 7.326-2.905c1.853-1.937 2.78-4.463 2.78-7.58m5.684 0c0 4.38-1.538 8.107-4.61 11.18-3.075 3.074-6.801 4.61-11.18 4.61-4.38 0-8.107-1.536-11.18-4.61-3.074-3.073-4.61-6.8-4.61-11.18 0-4.378 1.536-8.105 4.61-11.179 3.073-3.073 6.8-4.61 11.18-4.61 4.379 0 8.105 1.537 11.18 4.61 3.072 3.074 4.61 6.8 4.61 11.18m23.685 15.158h-3.98c-5.179 0-9.284-1.6-12.316-4.8-2.738-2.863-4.105-6.316-4.105-10.359 0-2.315.463-4.484 1.389-6.505 1.095-2.4 2.78-4.358 5.053-5.874 1.6-1.052 3.263-1.778 4.99-2.179 1.726-.4 3.474-.6 5.242-.6h3.727v5.305h-3.98c-3.663 0-6.464 1.117-8.4 3.348-1.558 1.81-2.337 3.979-2.337 6.505 0 2.738.885 5.012 2.653 6.822 1.979 2.02 4.737 3.031 8.274 3.031h3.79v5.306z" fill="#48001e" fill-rule="nonzero"/><path d="M109.608 30.29c0 2.694-.338 4.968-1.01 6.82-.928 2.57-2.59 4.59-4.99 6.064-2.022 1.221-4.338 1.832-6.948 1.832-2.612 0-4.927-.611-6.948-1.832-2.358-1.473-4.021-3.495-4.99-6.063-.674-1.81-1.01-4.084-1.01-6.822V19.742l5.558-6.316v16.863c0 1.811.19 3.285.568 4.422.632 1.853 1.79 3.243 3.474 4.168.968.548 2.084.821 3.348.821.546 0 1.115-.063 1.705-.19a5.524 5.524 0 001.642-.63c1.726-.926 2.884-2.295 3.474-4.106.379-1.137.568-2.631.568-4.485V14.057l5.559 5.065v11.167z" fill="#ed1c24" fill-rule="nonzero"/><path d="M138.598 35.91c0 .927-.117 1.812-.347 2.653a7.48 7.48 0 01-1.043 2.274c-1.053 1.474-2.463 2.485-4.231 3.032-1.137.338-2.59.505-4.358.505h-14.843V39.07h14.527c1.43 0 2.357-.064 2.779-.19 1.22-.336 1.832-1.115 1.832-2.337 0-.926-.338-1.684-1.011-2.274-.505-.42-1.306-.82-2.4-1.2a473.193 473.193 0 01-8.274-2.59c-2.864-1.051-4.822-2.283-5.874-3.694-1.053-1.41-1.58-2.916-1.58-4.516 0-.758.064-1.516.19-2.274s.505-1.557 1.137-2.4c1.094-1.473 2.61-2.484 4.548-3.032 1.22-.336 2.842-.505 4.863-.505h12.695v5.306h-14.274c-1.053 0-1.895.2-2.526.6-.632.4-.948.979-.948 1.736 0 .885.357 1.622 1.074 2.21.463.38 1.2.738 2.21 1.075 2.695.842 5.41 1.664 8.148 2.463 2.947 1.053 4.968 2.296 6.064 3.726 1.094 1.433 1.642 3.012 1.642 4.738" fill="#48001e" fill-rule="nonzero"/><path d="M93.155 16.48c.55-1.714 1.46-2.916 2.176-4.393.81-1.67 1.112-3.708 1.219-5.883 1.243 2.655 1.43 5.676.58 8.697-.69 2.452-1.67 4.92-1 7.74.466 1.964 1.685 3.672 2.935 2.855a4.155 4.155 0 01-.277.363 3.56 3.56 0 01-.314.324c-.22.199-.453.355-.692.471a2.461 2.461 0 01-1.533.217c-1.15-.208-2.265-1.245-2.934-2.922-.547-1.373-.774-3.097-.664-4.757.068-1.029.247-1.912.504-2.713" fill="#ed1c24" fill-rule="nonzero"/><path d="M97.458 22.166c.03-2.709 1.143-4.786 1.7-7.177.356-1.524.397-3.393-.057-4.872.22.589.345 1.05.499 1.607.156.565.338 1.465.433 2.07.204 1.293.255 2.544.137 3.867-.04.46-.1.923-.176 1.373-.076.452-.207.901-.253 1.366-.03.31-.014.743.18.873.136.09.288-.04.398-.206.206-.311.347-.84.375-1.315.023 1.514-.265 3.06-.807 4.33-.226.529-.494 1.163-.865 1.38-.278.162-.604.045-.836-.26-.32-.42-.515-1.089-.625-1.75a7.426 7.426 0 01-.103-1.286" fill="#ed1c24" fill-rule="nonzero"/></svg>