<svg viewBox="0 0 194 63" xmlns="http://www.w3.org/2000/svg" fill-rule="evenodd" clip-rule="evenodd" stroke-linejoin="round" stroke-miterlimit="2"><path d="M29.766 35.235H8.652v26.856H.348V20.835c0-5.77 1.237-10.276 3.71-13.516C7.65 2.608 13.745.252 22.345.252h7.42v7.774h-8.392c-3.829 0-6.626.59-8.392 1.767-2.887 1.943-4.329 5.565-4.329 10.866v6.802h21.114v7.774zm40.813 5.654c0-4.298-1.311-7.818-3.931-10.557-2.622-2.739-6.023-4.108-10.204-4.108-4.123 0-7.509 1.356-10.159 4.064-2.65 2.71-3.976 6.243-3.976 10.601 0 4.359 1.295 7.893 3.887 10.601 2.591 2.71 6.008 4.064 10.248 4.064 4.24 0 7.656-1.355 10.248-4.064 2.59-2.708 3.887-6.242 3.887-10.601m7.95 0c0 6.126-2.15 11.338-6.448 15.636-4.3 4.3-9.512 6.45-15.637 6.45-6.126 0-11.338-2.15-15.636-6.45-4.3-4.298-6.45-9.51-6.45-15.636 0-6.125 2.15-11.337 6.45-15.636 4.298-4.299 9.51-6.45 15.636-6.45 6.125 0 11.337 2.151 15.637 6.45 4.298 4.3 6.449 9.511 6.449 15.636m33.127 21.202h-5.566c-7.244 0-12.986-2.238-17.226-6.714-3.83-4.004-5.742-8.834-5.742-14.488 0-3.238.647-6.272 1.943-9.099 1.53-3.357 3.887-6.096 7.067-8.216 2.238-1.471 4.564-2.487 6.98-3.048a32.403 32.403 0 017.332-.839h5.212v7.42h-5.566c-5.124 0-9.04 1.562-11.75 4.683-2.179 2.533-3.268 5.565-3.268 9.099 0 3.83 1.237 7.01 3.71 9.541 2.768 2.827 6.626 4.24 11.573 4.24h5.3v7.421z" fill="#fff" fill-rule="nonzero"/><path d="M153.353 42.39c0 3.77-.472 6.951-1.413 9.542-1.297 3.593-3.623 6.42-6.98 8.48-2.826 1.708-6.066 2.562-9.717 2.562-3.652 0-6.89-.854-9.718-2.561-3.298-2.061-5.624-4.888-6.979-8.481-.943-2.532-1.413-5.712-1.413-9.541V27.638l7.774-8.834V42.39c0 2.533.265 4.593.795 6.184.883 2.592 2.502 4.536 4.859 5.83 1.354.767 2.915 1.149 4.682 1.149.765 0 1.56-.089 2.385-.265a7.726 7.726 0 002.297-.884c2.414-1.294 4.033-3.209 4.859-5.742.53-1.59.795-3.68.795-6.272V19.687l7.774 7.084v15.62z" fill="#ed1c24" fill-rule="nonzero"/><path d="M193.901 50.253a13.96 13.96 0 01-.486 3.71 10.41 10.41 0 01-1.458 3.18c-1.472 2.063-3.445 3.477-5.918 4.241-1.59.473-3.622.707-6.096.707h-20.76v-7.42h20.318c2.002 0 3.298-.089 3.887-.266 1.708-.47 2.562-1.56 2.562-3.268 0-1.295-.472-2.355-1.413-3.18-.707-.589-1.826-1.149-3.357-1.68a661.845 661.845 0 01-11.573-3.621c-4.006-1.472-6.744-3.194-8.216-5.168-1.473-1.972-2.208-4.078-2.208-6.317 0-1.06.088-2.12.265-3.18.176-1.06.706-2.178 1.59-3.357 1.53-2.06 3.65-3.474 6.36-4.24 1.708-.471 3.976-.707 6.803-.707h17.756v7.42h-19.965c-1.472 0-2.65.28-3.533.84-.884.56-1.326 1.37-1.326 2.43 0 1.236.5 2.267 1.502 3.091.648.53 1.679 1.031 3.092 1.502a627.076 627.076 0 0011.396 3.445c4.122 1.473 6.949 3.211 8.481 5.213 1.531 2.003 2.297 4.211 2.297 6.625" fill="#fff" fill-rule="nonzero"/><path d="M130.34 23.075c.77-2.396 2.042-4.077 3.045-6.143 1.134-2.336 1.555-5.186 1.704-8.228 1.74 3.712 2 7.939.81 12.164-.964 3.43-2.335 6.88-1.398 10.825.652 2.747 2.358 5.137 4.106 3.993-.106.16-.27.372-.388.509a4.98 4.98 0 01-.439.452 4.162 4.162 0 01-.967.66 3.442 3.442 0 01-2.145.302c-1.607-.29-3.167-1.74-4.103-4.086-.766-1.92-1.082-4.331-.93-6.654a15.64 15.64 0 01.706-3.794" fill="#ed1c24" fill-rule="nonzero"/><path d="M136.36 31.03c.04-3.79 1.598-6.695 2.378-10.039.498-2.132.555-4.747-.081-6.814.308.822.483 1.468.698 2.247.219.79.473 2.05.606 2.895a21.72 21.72 0 01.192 5.41c-.056.642-.14 1.29-.246 1.919-.107.633-.29 1.26-.355 1.91-.042.434-.02 1.04.254 1.221.189.126.4-.056.555-.287.288-.435.486-1.175.525-1.84.032 2.118-.371 4.28-1.13 6.056-.315.74-.69 1.627-1.209 1.93-.39.228-.844.064-1.169-.361-.447-.588-.721-1.525-.874-2.45a10.386 10.386 0 01-.145-1.797" fill="#ed1c24" fill-rule="nonzero"/></svg>